<svg width="22" height="22" viewBox="0 0 22 22" fill="none" xmlns="http://www.w3.org/2000/svg">
    <path d="M19.305 5.21767C18.6327 4.33434 17.683 3.70264 16.6084 3.42405C15.5339 3.14546 14.3968 3.23614 13.38 3.68154C12.47 4.07427 11.6583 4.73642 11 5.61513C10.3417 4.73427 9.53004 4.07212 8.61996 3.68154C7.60315 3.23614 6.46614 3.14546 5.39159 3.42405C4.31704 3.70264 3.36732 4.33434 2.695 5.21767C1.98602 6.14666 1.61133 7.30767 1.61133 8.57482C1.61133 10.3984 2.69887 12.399 4.84344 14.5234C6.59098 16.2538 8.65605 17.6709 9.73113 18.3614C10.1099 18.6038 10.5503 18.7327 11 18.7327C11.4497 18.7327 11.8901 18.6038 12.2689 18.3614C13.3431 17.6709 15.409 16.2538 17.1566 14.5234C19.3011 12.3999 20.3887 10.3984 20.3887 8.57482C20.3887 7.30767 20.014 6.14666 19.305 5.21767Z" fill="#E2061A"/>
</svg>
