<svg width="13" height="18" viewBox="0 0 13 18" fill="none" xmlns="http://www.w3.org/2000/svg">
    <path fill-rule="evenodd" clip-rule="evenodd" d="M5.82267 17.4122L0.568176 8.90979C0.568176 8.90979 -1.07385 5.63964 1.22499 2.3695C3.52383 -0.900641 9.58656 -0.677049 11.734 2.3695C13.8814 5.41605 12.7192 8.25575 12.3908 8.90979C12.0624 9.56383 7.1363 17.4122 7.1363 17.4122C6.62312 18.1767 6.33582 18.2149 5.82267 17.4122ZM6.47957 8.90972C7.93056 8.90972 9.10682 7.73844 9.10682 6.2936C9.10682 4.84876 7.93056 3.67749 6.47957 3.67749C5.02858 3.67749 3.85233 4.84876 3.85233 6.2936C3.85233 7.73844 5.02858 8.90972 6.47957 8.90972Z" fill="#E2061A"/>
</svg>
