<svg width="18" height="18" viewBox="0 0 18 18" fill="none" xmlns="http://www.w3.org/2000/svg">
    <path fill-rule="evenodd" clip-rule="evenodd" d="M17.6715 15.8329C17.5519 15.952 17.4078 16.1044 17.255 16.2655C16.8736 16.6703 16.3971 17.1734 16.0985 17.3775C14.5274 18.4511 12.4254 17.9374 10.9386 17.3179C8.97727 16.5007 6.8419 14.9944 4.92457 13.0768C3.00544 11.1591 1.49927 9.02303 0.682053 7.06281C0.0632974 5.57569 -0.4515 3.47333 0.622286 1.90183C0.826194 1.603 1.33052 1.12729 1.73475 0.745178C1.89647 0.592809 2.04764 0.448843 2.16717 0.329698C2.37938 0.118539 2.66657 0 2.96594 0C3.26531 0 3.55251 0.118539 3.76472 0.329698L6.65557 3.21971C6.86661 3.43191 6.98508 3.71902 6.98508 4.0183C6.98508 4.31759 6.86661 4.6047 6.65557 4.8169L5.86806 5.60283C5.60507 5.8639 5.4334 6.20292 5.37861 6.56943C5.32382 6.93594 5.38884 7.31034 5.564 7.63691C6.64716 9.68128 8.31937 11.3532 10.3639 12.436C10.6904 12.6111 11.0648 12.6761 11.4312 12.6212C11.7976 12.5663 12.1364 12.3945 12.3973 12.1315L13.1829 11.3455C13.3951 11.1343 13.6823 11.0158 13.9817 11.0158C14.281 11.0158 14.5682 11.1343 14.7804 11.3455L17.6715 14.236C17.8825 14.4481 18.001 14.7352 18.001 15.0344C18.001 15.3337 17.8825 15.6207 17.6715 15.8329Z" fill="#E2061A"/>
</svg>
